<svg xmlns="http://www.w3.org/2000/svg" viewBox="0 0 100 100" width="100%" height="100%">
  <defs>
    <linearGradient id="goldGrad" x1="0%" y1="0%" x2="100%" y2="100%">
      <stop offset="0%" stop-color="#fff1a8" />
      <stop offset="50%" stop-color="#f5b300" />
      <stop offset="100%" stop-color="#c98a00" />
    </linearGradient>
    <filter id="goldGlow" x="-20%" y="-20%" width="140%" height="140%">
      <feDropShadow dx="0" dy="2" stdDeviation="3" flood-color="#ffd700" flood-opacity="0.4"/>
    </filter>
  </defs>
  <g filter="url(#goldGlow)" fill="url(#goldGrad)">
    <!-- Cán búa & đầu búa -->
    <rect x="52" y="16" width="10" height="74" rx="3" transform="rotate(45 57 53)"/>
    <path d="M 64 16 L 84 36 L 88 32 L 83 27 L 87 23 L 82 18 L 78 22 L 72 16 L 76 12 L 68 4 Z" />
    <!-- Lưỡi liềm cong truyền thống -->
    <path d="M 32 78 C 24 70 22 58 26 47 C 31 33 45 22 62 20 C 68 19 74 20 78 22 C 75 26 70 28 65 28 C 50 29 38 41 37 55 C 36 63 39 70 44 75 C 40 76 36 77 32 78 Z" />
    <path d="M 43 72 L 53 82 C 55 84 54 88 50 91 C 47 93 43 92 40 89 L 30 79 C 33 76 38 73 43 72 Z" />
  </g>
</svg>
